<svg xmlns="http://www.w3.org/2000/svg" viewBox="0 0 1772.52 596.92"><defs><style>.cls-1{fill:#ffc024;}</style></defs><g id="Layer_2" data-name="Layer 2"><g id="Layer_1-2" data-name="Layer 1"><path class="cls-1" d="M57.23,282.45H55.65q0,21.53.79,42.26t.79,42.79c0,4.2-.1,8.32-.27,12.34a42.87,42.87,0,0,1-1.84,11,15,15,0,0,1-5.51,7.88q-3.93,2.88-11.81,2.88-14.7,0-20.47-15.22-2.64-24.67-3.15-48.56T11,288.75a31.55,31.55,0,0,0-6-14.18q-5-6.81-5-13.12a10.26,10.26,0,0,1,3.41-7.88q3.42-3.15,3.42-8.92,0-41-2.37-81.11T2.1,83V74c2.44-3.49,4.9-5.59,7.35-6.29a37.64,37.64,0,0,1,10-1.06q15.21,0,19.42,9.19t4.73,22.31L48.3,237.82c.34,1.05,1,2.72,1.84,5s2.18,3.41,3.93,3.41a90.72,90.72,0,0,0,13.66-1.83q10-1.84,21-4.2t20-5.25q8.92-2.88,10.5-5.52,0-3.66.27-13.12t.26-13.13q0-22-.53-43.57T117.07,116q0-3.66-1.57-17.58t-3.15-30.19Q110.78,52,109.46,38.06t-1.31-17.58c-.35-.35-.53-1.49-.53-3.42V13.12q0-6.81,5-10A19.76,19.76,0,0,1,123.37,0Q136,0,142,7.88a49.55,49.55,0,0,1,8.66,19.42q.53,5.79,1.58,19.43t2.62,29.39q1.57,15.75,2.89,29.67c.87,9.27,1.49,15.67,1.84,19.16v8.4c0,1.75.26,5.17.79,10.24s1,8.49,1.31,10.23V369.07a104.26,104.26,0,0,1,3.41,14.7,101.8,101.8,0,0,1,.79,13.65,31,31,0,0,1-3.41,13.39q-3.42,7.1-11.82,7.09a25.12,25.12,0,0,1-13.38-3.68,38,38,0,0,1-10.5-9.45,48,48,0,0,1-7.09-12.86,41,41,0,0,1-2.63-14.44V269.32Z"/><path class="cls-1" d="M412.65,268.27a120.22,120.22,0,0,1-2.36,14.7,26.08,26.08,0,0,1-4.47,9.45,46.57,46.57,0,0,1-8.92,8.67q-5.79,4.46-15.75,12.6T356.47,335q-14.7,13.13-35.7,34.12-8.4,7.88-17.32,16.28a149.16,149.16,0,0,1-18.64,15,106.34,106.34,0,0,1-20.21,10.76,58.7,58.7,0,0,1-22.05,4.2q-22.58,0-33.08-15.22T199,364.87q0-13.11.79-22.05a188.64,188.64,0,0,1,3.94-23.1q-5.79-5.24-10-9.18c-2.8-2.63-4.2-6.21-4.2-10.77,0-4.2,1-7,2.89-8.4a17.18,17.18,0,0,1,6.83-2.88q3.93-.8,7.61-1.84a8,8,0,0,0,5.25-4.2q1.05-3.15,3.94-11.55l6-17.59q3.15-9.18,6-17.32t3.94-11.29q3.66-8.92,8.14-18.11a83.16,83.16,0,0,1,10.5-16.54A51.87,51.87,0,0,1,264.86,178,37.47,37.47,0,0,1,284,173.25q6.3,0,15.49,5.77a108.2,108.2,0,0,1,17.59,13.92A98.38,98.38,0,0,1,331.27,210q5.78,8.92,5.78,15.22a29,29,0,0,1-3.68,14.44,55.27,55.27,0,0,1-9.18,12.08A111.19,111.19,0,0,1,312.37,262q-6.3,4.72-11.55,8.93a5.41,5.41,0,0,0-2.1,1.05,23.81,23.81,0,0,1-2.62,1.57l-2.36,2.37-3.94,3.93c-1.4,1.41-2.72,2.81-3.94,4.2s-2,2.28-2.36,2.63a71.06,71.06,0,0,1-6,5c-3,2.28-6.22,4.72-9.71,7.35s-6.74,5.07-9.71,7.35-5,3.76-6,4.46l-2.1,4.2c-.71,1.4-1.31,4.46-1.84,9.19s-1.14,10.06-1.84,16-1.31,12-1.83,18.11-.79,11.12-.79,15a1.47,1.47,0,0,0,.52,1.05c.7.71,1.23,1.05,1.58,1.05a11,11,0,0,0,7.87-3.67,22.12,22.12,0,0,1,7.88-5.25l84-77.7L367,255.67q2.63-3.66,10.24-8.13a32.62,32.62,0,0,1,15.49-4.73,19.55,19.55,0,0,1,13.91,5Q412.64,253.05,412.65,268.27Zm-115.5-40.95c1.75-1.39,2.44-3.49,2.1-6.3a15.14,15.14,0,0,0-2.89-7.35,9.93,9.93,0,0,0-6-3.93q-3.68-.8-6.82,3.93c-1.05,1.41-2.89,4.2-5.51,8.4s-5.25,8.49-7.88,12.87-4.81,8.13-6.56,11.28-2.1,4.38-1.05,3.68Z"/><path class="cls-1" d="M531.82,561.75q-1.05-11-1.31-26.78t-.26-33.07q0-17.32.26-35.18t1.31-32.55v-18.9a77.75,77.75,0,0,0-6.3-7.61q-3.67-3.93-12.86-15.75t-26-35.17q-16.8-23.36-45.15-65.37-11-11.53-14.17-19.16c-2.1-5.07-2.81-9.19-2.1-12.34a9.46,9.46,0,0,1,5.51-6.82,20.26,20.26,0,0,1,8.66-2.1,37.87,37.87,0,0,1,18.9,4.72,62.62,62.62,0,0,1,15.23,12.08,112.57,112.57,0,0,1,12.34,16q5.5,8.67,10.76,16.54,3.15,4.72,7.87,12.07T514,326.81q4.72,7.1,11.55,17.59l6.3,6.82V296.1q0-26.25-1.05-51.19t-1-50.66A15.53,15.53,0,0,1,535,182.17a16.37,16.37,0,0,1,12.6-4.2q8.92,1.07,13.39,3.15c3,1.41,6,4.2,9.19,8.4a21.37,21.37,0,0,1,3.94,13.65,141.74,141.74,0,0,0,.26,15.23q2.08,49.87,3.41,99.49t1.31,99.48q-.52,4.72-.52,19.17t.26,32.81q.26,18.38.53,38.32t.52,36.49q.25,16.55.53,27.3t.78,10.24c0,5.25-1.83,9.09-5.51,11.55a23.66,23.66,0,0,1-13.39,3.67q-10.5,0-15.48-2.88a19.45,19.45,0,0,1-7.62-7.88,37.26,37.26,0,0,1-3.67-11.29A68.14,68.14,0,0,0,531.82,561.75Z"/><path class="cls-1" d="M848.73,186.9q-.53-4.2-1.31-10.76t-1.57-12.6q-.79-6-1.84-14.44h-4.2L780,167q-2.64,4.2-8.66,4.2h-9.19q-7.36,0-15-6.56t-7.62-14.44a19.28,19.28,0,0,1,3.94-11.29,20.44,20.44,0,0,1,9.71-7.61l84.53-26.78a36.13,36.13,0,0,1,6-11.81,14,14,0,0,1,11.81-6A20.33,20.33,0,0,1,867.9,90.3a40,40,0,0,0,11.28,5.77,145,145,0,0,0,15.75-3.15l23.36-5.51q12.33-2.88,23.37-5.51t15.22-3.68a34.72,34.72,0,0,0,9.45-2.62c2.1-1,5.42-1.58,10-1.58q8.91,0,18.37,5.25T1004.13,95a16.59,16.59,0,0,1-4.72,11.82,22.54,22.54,0,0,1-11.55,6.56l-99.75,25.2v4.72a176.75,176.75,0,0,0,2.89,32,127.85,127.85,0,0,1,1.83,31.5l17.85,162.22v11.55q0,6.3-.26,12.87a40.86,40.86,0,0,1-2.1,11.81,19,19,0,0,1-6,8.66q-4.2,3.42-12.6,3.41-6.3,0-13.39-5.25t-7.61-12.6L848.73,191.1Z"/><path class="cls-1" d="M990,160.65a423,423,0,0,0-2.63-63,538.7,538.7,0,0,1-3.67-62.48q0-10,5.77-12.33a34.31,34.31,0,0,1,13.13-2.36q10.49,0,17.32,5.77t7.88,16.27q4.73,57.24,5.51,113.14a1082.36,1082.36,0,0,0,7.61,113.14q15.75-29.93,32.55-49.35t32.29-25.73q15.48-6.3,28.35,2.37t20.74,34.12q7.88,25.47,9.45,69.3T1159,408.45c-2.46,0-5.43.09-8.93.26a65.57,65.57,0,0,1-10.24-.26,29.88,29.88,0,0,1-8.66-2.1,6.74,6.74,0,0,1-4.2-5.78q4.2-39.37,4.73-66.15t-1.58-44.1q-2.1-17.32-5.77-26.51t-7.88-13.39q-4.2-4.18-8.14-4.46a21.21,21.21,0,0,0-6,.26q-11.57,4.22-21.79,20.48a179.87,179.87,0,0,0-17.59,37.8,249,249,0,0,0-10.76,45.41q-3.42,23.89-1.84,42.79l-1,8.4a37.11,37.11,0,0,1-1.84,7.87,13.42,13.42,0,0,1-4.2,6c-1.92,1.58-4.81,2.36-8.66,2.36q-11,0-17.59-3.93a26.6,26.6,0,0,1-10-10.24,37.84,37.84,0,0,1-4.2-14.7,82,82,0,0,1,.26-17.33Z"/><path class="cls-1" d="M1405.23,268.27a118.29,118.29,0,0,1-2.36,14.7,26.07,26.07,0,0,1-4.46,9.45,46.66,46.66,0,0,1-8.93,8.67q-5.77,4.46-15.75,12.6T1349.06,335q-14.71,13.13-35.7,34.12-8.41,7.88-17.33,16.28a147.72,147.72,0,0,1-18.64,15,106.34,106.34,0,0,1-20.21,10.76,58.63,58.63,0,0,1-22,4.2q-22.58,0-33.07-15.22t-10.5-35.18q0-13.11.78-22.05a188.64,188.64,0,0,1,3.94-23.1q-5.77-5.24-10-9.18c-2.81-2.63-4.2-6.21-4.2-10.77,0-4.2,1-7,2.88-8.4a17.18,17.18,0,0,1,6.83-2.88q3.93-.8,7.61-1.84a8,8,0,0,0,5.25-4.2q1-3.15,3.94-11.55t6-17.59q3.15-9.18,6-17.32t3.94-11.29q3.67-8.92,8.14-18.11a83.16,83.16,0,0,1,10.5-16.54A51.87,51.87,0,0,1,1257.44,178a37.53,37.53,0,0,1,19.17-4.72q6.3,0,15.48,5.77a108.2,108.2,0,0,1,17.59,13.92A98.45,98.45,0,0,1,1323.86,210q5.76,8.92,5.77,15.22a29.14,29.14,0,0,1-3.67,14.44,55.63,55.63,0,0,1-9.19,12.08A111.08,111.08,0,0,1,1305,262q-6.3,4.72-11.55,8.93a5.35,5.35,0,0,0-2.1,1.05,23.79,23.79,0,0,1-2.63,1.57l-2.36,2.37-3.94,3.93q-2.1,2.12-3.94,4.2c-1.23,1.41-2,2.28-2.36,2.63a71.06,71.06,0,0,1-6,5c-3,2.28-6.21,4.72-9.71,7.35s-6.74,5.07-9.71,7.35-5,3.76-6,4.46l-2.1,4.2q-1.05,2.1-1.84,9.19c-.52,4.72-1.14,10.06-1.83,16s-1.32,12-1.84,18.11-.79,11.12-.79,15a1.45,1.45,0,0,0,.53,1.05c.69.71,1.22,1.05,1.57,1.05,2.8,0,5.42-1.22,7.88-3.67a22.09,22.09,0,0,1,7.87-5.25l84-77.7,21.53-33.08q2.61-3.66,10.23-8.13a32.62,32.62,0,0,1,15.49-4.73,19.54,19.54,0,0,1,13.91,5Q1405.22,253.05,1405.23,268.27Zm-115.5-40.95q2.63-2.08,2.1-6.3a15.14,15.14,0,0,0-2.89-7.35,9.94,9.94,0,0,0-6-3.93q-3.69-.8-6.83,3.93c-1,1.41-2.89,4.2-5.51,8.4s-5.25,8.49-7.88,12.87-4.81,8.13-6.56,11.28-2.1,4.38-1.05,3.68Z"/><path class="cls-1" d="M1443,394.8q-1-18.9-3.41-50.66t-5.25-65.89q-2.89-34.12-6-64.58t-5.25-47.25q0-6.81,6.3-8.92a38.13,38.13,0,0,1,12.08-2.1,33.86,33.86,0,0,1,15.48,4.2q8.14,4.2,10.24,11.55c0,1.4.17,3.94.53,7.61s.6,7.44.78,11.29.44,7.61.79,11.29.53,6.21.53,7.61v7.61a9.17,9.17,0,0,0,.52,2.89c.35,1.05.87,2.8,1.58,5.25.69-.7,1.48-1.58,2.36-2.63s1.48-1.74,1.84-2.1q8.39-12.06,16.27-21.26t16.28-17.32q8.38-8.14,18.63-17.33t23.89-21.26l4.73-3.94a25,25,0,0,1,2.88-2.1,8.34,8.34,0,0,1,2.89-1,27.25,27.25,0,0,1,4.2-.26q8.92,0,18.11,6t9.19,16.53a13.85,13.85,0,0,1-2.62,7.62,42.48,42.48,0,0,1-6.3,7.35,59.59,59.59,0,0,1-7.62,6,30.18,30.18,0,0,1-7.08,3.68q-13.66,12.08-28.88,27.56a305.68,305.68,0,0,0-28.35,33.34,190.16,190.16,0,0,0-21.52,37.27,97.09,97.09,0,0,0-8.4,38.85A234.44,234.44,0,0,0,1485,354.9a234.51,234.51,0,0,1,2.63,35.17v18.38c-2.81,2.8-5.25,5.08-7.35,6.82s-5.08,2.63-8.93,2.63q-8.93,0-17.32-7.61T1443,394.8Z"/><path class="cls-1" d="M1772.52,268.27a120.22,120.22,0,0,1-2.36,14.7,26.08,26.08,0,0,1-4.47,9.45,46.57,46.57,0,0,1-8.92,8.67q-5.79,4.46-15.75,12.6T1716.34,335q-14.7,13.13-35.7,34.12-8.4,7.88-17.32,16.28a149.16,149.16,0,0,1-18.64,15,106.34,106.34,0,0,1-20.21,10.76,58.7,58.7,0,0,1-22,4.2q-22.58,0-33.07-15.22t-10.5-35.18q0-13.11.78-22.05a188.64,188.64,0,0,1,3.94-23.1q-5.79-5.24-10-9.18c-2.81-2.63-4.2-6.21-4.2-10.77,0-4.2.95-7,2.88-8.4a17.18,17.18,0,0,1,6.83-2.88q3.93-.8,7.61-1.84a8,8,0,0,0,5.25-4.2q1-3.15,3.94-11.55l6-17.59q3.15-9.18,6-17.32t3.94-11.29q3.66-8.92,8.14-18.11a83.16,83.16,0,0,1,10.5-16.54A51.87,51.87,0,0,1,1624.73,178a37.47,37.47,0,0,1,19.16-4.72q6.3,0,15.49,5.77A108.2,108.2,0,0,1,1677,192.94,98.38,98.38,0,0,1,1691.14,210q5.77,8.92,5.78,15.22a29,29,0,0,1-3.68,14.44,55.27,55.27,0,0,1-9.18,12.08A111.19,111.19,0,0,1,1672.24,262q-6.3,4.72-11.55,8.93a5.41,5.41,0,0,0-2.1,1.05,23.81,23.81,0,0,1-2.62,1.57l-2.36,2.37-3.94,3.93c-1.4,1.41-2.72,2.81-3.94,4.2s-2,2.28-2.36,2.63a71.06,71.06,0,0,1-6,5c-3,2.28-6.22,4.72-9.71,7.35s-6.74,5.07-9.71,7.35-5,3.76-6,4.46l-2.1,4.2c-.71,1.4-1.31,4.46-1.84,9.19s-1.14,10.06-1.84,16-1.31,12-1.83,18.11-.79,11.12-.79,15a1.45,1.45,0,0,0,.53,1.05c.69.71,1.22,1.05,1.57,1.05a11,11,0,0,0,7.87-3.67,22.12,22.12,0,0,1,7.88-5.25l84-77.7,21.52-33.08q2.63-3.66,10.24-8.13a32.62,32.62,0,0,1,15.49-4.73,19.55,19.55,0,0,1,13.91,5Q1772.51,253.05,1772.52,268.27ZM1657,227.32c1.75-1.39,2.44-3.49,2.1-6.3a15.14,15.14,0,0,0-2.89-7.35,9.93,9.93,0,0,0-6-3.93q-3.68-.8-6.82,3.93c-1,1.41-2.89,4.2-5.51,8.4s-5.25,8.49-7.88,12.87-4.81,8.13-6.56,11.28-2.1,4.38-1.05,3.68Z"/></g></g></svg>