<?xml version="1.0" encoding="utf-8"?>
<!-- Generator: Adobe Illustrator 27.0.0, SVG Export Plug-In . SVG Version: 6.00 Build 0)  -->
<svg version="1.1" id="Layer_1" xmlns="http://www.w3.org/2000/svg" xmlns:xlink="http://www.w3.org/1999/xlink" x="0px" y="0px"
	 viewBox="0 0 366.51 319.4" style="enable-background:new 0 0 366.51 319.4;" xml:space="preserve">
<style type="text/css">
	.st0{fill:#303030;}
</style>
<g>
	<path class="st0" d="M63.77,293.85c-6.52,0-11.2-2.2-14.06-6.59c-1.17-1.83-1.76-4.17-1.76-7.03c0-4.76,2.12-11.99,6.37-21.69
		c4.24-9.7,15.01-24.69,32.29-44.97c-7.25-3.73-15.01-7.28-23.28-10.65c-9.3-3.73-18.03-7.78-26.19-12.14
		c-8.16-4.36-14.51-9.68-19.05-15.98c-3.29-4.54-4.94-9.88-4.94-16.03c0-2.27,0.53-6.33,1.59-12.19
		c1.06-5.86,6.79-15.52,17.19-28.99c9.3-11.79,20.68-23.39,34.15-34.81c13.47-11.42,27.75-21.69,42.83-30.81
		c15.08-9.12,29.61-16.09,43.6-20.92c10.69-3.66,20.32-5.49,28.88-5.49c2.64,0,5.16,0.18,7.58,0.55
		c12.52,2.34,20.65,7.1,24.38,14.28c2.27,4.39,3.4,9.23,3.4,14.5c0,3.22-0.79,8.07-2.36,14.55c-1.57,6.48-5.05,14.19-10.43,23.12
		c-5.38,8.93-10.95,16.38-16.69,22.35c-5.75,5.97-10.05,8.95-12.9,8.95c-1.1,0-2.18-0.18-3.24-0.55c-1.06-0.37-1.94-0.79-2.64-1.26
		c-0.7-0.48-1.04-0.86-1.04-1.15c0-0.95,3.48-5.93,10.43-14.94c9.66-12.08,16.65-23.9,20.98-35.47c1.61-4.32,2.42-8.35,2.42-12.08
		c0-2.12-0.49-5.03-1.48-8.73c-0.99-3.7-5.47-6.57-13.45-8.62c-1.91-0.37-3.99-0.55-6.26-0.55c-8.93,0-21.12,3.2-36.57,9.61
		c-15.45,6.41-32.29,16.03-50.52,28.88s-33.86,26.96-46.89,42.34c-9.44,10.69-15.19,19.66-17.24,26.91c-0.73,2.64-1.1,5.16-1.1,7.58
		c0,4.1,1.41,8.18,4.23,12.25c2.82,4.06,7.67,7.91,14.55,11.53c6.88,3.62,14.5,7.08,22.84,10.38c7.76,3.08,15.34,6.48,22.73,10.21
		c0.81,0.44,1.52,0.84,2.14,1.21c0.62,0.37,1.08,0.62,1.37,0.77c0.29,0.15,0.59,0.22,0.88,0.22c0.51,0,1.1-0.09,1.76-0.27
		c0.66-0.18,1.57-0.42,2.75-0.71c1.68-0.44,3.18-0.66,4.5-0.66c1.54,0,2.76,0.26,3.68,0.77c0.92,0.51,1.37,1.21,1.37,2.09
		c0,1.1-0.59,2.49-1.76,4.17c-0.29,0.37-0.44,0.77-0.44,1.21s0.22,1.01,0.66,1.7c0.44,0.7,1.54,1.85,3.29,3.46
		c8.86,8.79,13.29,17.57,13.29,26.36c0,0.37-0.11,2.95-0.33,7.74c-0.22,4.8-3.61,11.02-10.16,18.67
		c-6.55,7.65-14.33,13.89-23.34,18.72C81.52,291.1,72.19,293.85,63.77,293.85z M69.15,280.56c1.9,0,4.92-0.73,9.06-2.2
		c4.14-1.46,9.21-4.74,15.21-9.83c6-5.09,10.47-10.96,13.4-17.63c1.39-3.08,2.09-6.19,2.09-9.33c0-5.2-2.05-10.69-6.15-16.47
		c-1.54-2.2-3.04-3.29-4.5-3.29c-0.95,0-1.94,0.55-2.97,1.65c-14.5,16.47-23.98,29.07-28.44,37.78c-3,5.78-4.5,10.21-4.5,13.29
		c0,1.61,0.4,2.86,1.21,3.73C64.87,279.79,66.73,280.56,69.15,280.56z"/>
	<path class="st0" d="M186.55,209.4c-5.34,0-9.15-2.6-11.42-7.8c-1.1-2.86-1.65-6.08-1.65-9.66c0-4.83,0.48-9.66,1.43-14.5
		c0.59-3.44,0.88-6.11,0.88-8.02c0-0.59-0.04-1.1-0.11-1.54c-0.44,0-2.43,0.93-5.99,2.8c-3.55,1.87-7.78,4.23-12.68,7.08
		c-6.3,3.66-11.22,6.3-14.77,7.91c-3.55,1.61-6.57,2.42-9.06,2.42c-1.98,0-3.92-0.48-5.82-1.43c-2.12-0.81-3.18-2.67-3.18-5.6
		c0-3.66,1.72-9.66,5.16-18.01c1.83-4.61,3.46-7.94,4.89-9.99c1.43-2.05,2.95-3.08,4.56-3.08c1.46,0,3.11,0.73,4.94,2.2
		c1.54,0.73,2.31,2.01,2.31,3.84c0,1.46-0.48,3.55-1.43,6.26c-1.39,3.51-2.09,5.97-2.09,7.36c0,1.03,0.37,1.54,1.1,1.54
		c0.95,0,2.2-0.42,3.73-1.26c1.54-0.84,3.35-1.92,5.44-3.24s4.37-2.67,6.86-4.06c10.98-6.3,18.71-9.44,23.17-9.44
		c2.49,0,4.54,0.77,6.15,2.31c1.1,0.88,1.9,1.78,2.42,2.69c0.51,0.92,0.77,2.21,0.77,3.9c0,2.49-0.48,6.37-1.43,11.64
		c-1.1,6-1.65,10.65-1.65,13.95c0,2.71,0.38,4.61,1.15,5.71c0.77,1.1,1.99,1.65,3.68,1.65c3.37,0,11.35-2.82,23.94-8.46
		c9.3-4.1,18.83-8.6,28.61-13.51c9.77-4.91,17.48-9.08,23.12-12.52c6.15-3.66,10.36-5.49,12.63-5.49c1.32,0,2.2,0.42,2.64,1.26
		c0.44,0.84,0.66,1.92,0.66,3.24c0,2.2-3.61,5.78-10.82,10.76c-7.21,4.98-16.2,10.25-26.96,15.81
		c-10.76,5.56-21.78,10.54-33.06,14.94c-6.66,2.71-12.24,4.78-16.75,6.2C193.41,208.68,189.63,209.4,186.55,209.4z"/>
	<path class="st0" d="M238.06,225.76c-1.98,0-3.57-0.35-4.78-1.04c-1.21-0.7-1.81-1.67-1.81-2.91c0-1.68,1.36-3.77,4.06-6.26
		l11.09-9.88c1.83-1.61,3.79-4.5,5.88-8.68s4.05-8.97,5.88-14.39c3.15-9.3,6.92-17.15,11.31-23.56c4.39-6.41,8.38-9.61,11.97-9.61
		c2.64,0,5.07,0.71,7.3,2.14s3.35,3.17,3.35,5.22c0,0.81-0.31,1.56-0.93,2.25c-0.62,0.7-1.48,1.48-2.58,2.36
		c-2.12,1.54-4.56,4.03-7.3,7.47c-2.75,3.44-5.22,8.6-7.41,15.48L271,195.01c2.78-1.46,7.67-4.3,14.66-8.51
		c6.99-4.21,14.72-8.73,23.17-13.56s16.46-9.04,24-12.63c7.54-3.59,13.14-5.38,16.8-5.38c2.34,0,3.59,1.03,3.73,3.08v1.21
		c0,2.93-0.79,5.09-2.36,6.48s-3.53,2.64-5.88,3.73c-0.95,0.44-1.94,0.95-2.97,1.54c-20.06,10.03-38.86,19.91-56.39,29.65
		c-17.53,9.74-28.35,16.14-32.45,19.22c-2.71,2.05-5.4,3.55-8.07,4.5C242.58,225.28,240.18,225.76,238.06,225.76z"/>
</g>
</svg>
