<svg xmlns="http://www.w3.org/2000/svg" viewBox="0 0 834.37 818.86"><defs><style>.cls-1{fill:#fff;}</style></defs><g id="Layer_2" data-name="Layer 2"><g id="Layer_1-2" data-name="Layer 1"><path class="cls-1" d="M39.48,766.69h6.27L26.12,818.34H19.33L0,766.69H6.27l16.61,45.38Z"/><path class="cls-1" d="M144.2,766.69h5.9v51.65h-5.9Z"/><path class="cls-1" d="M255.56,805.21a10.49,10.49,0,0,0,1.88,3.95,11.08,11.08,0,0,0,4,3.24,14.46,14.46,0,0,0,6.53,1.29q5.69,0,8.42-2.65a8.47,8.47,0,0,0,2.73-6.28,7.12,7.12,0,0,0-1.55-4.72,11.86,11.86,0,0,0-4.21-3.06,43,43,0,0,0-6-2.18c-2-.54-3.92-1.14-5.86-1.81a23.85,23.85,0,0,1-5.28-2.51,11.26,11.26,0,0,1-3.76-3.94,11.93,11.93,0,0,1-1.41-6,13.19,13.19,0,0,1,7.9-12.55,20.45,20.45,0,0,1,8.78-1.77,21.12,21.12,0,0,1,7.6,1.25,14.91,14.91,0,0,1,5.43,3.51,14.18,14.18,0,0,1,3.21,5.2l-5.24,2a8.62,8.62,0,0,0-2-3.28,11.49,11.49,0,0,0-3.84-2.62,14.51,14.51,0,0,0-10.74,0,9,9,0,0,0-3.8,2.95,7.7,7.7,0,0,0-1.4,4.65,6.49,6.49,0,0,0,1.66,4.69,12,12,0,0,0,4.43,2.8q2.76,1.07,6.08,2,3,1,5.87,2.07a23.06,23.06,0,0,1,5.09,2.73,11.94,11.94,0,0,1,3.58,4.06,12.25,12.25,0,0,1,1.33,6,14.82,14.82,0,0,1-1.84,7.27,13.51,13.51,0,0,1-5.58,5.39,19.88,19.88,0,0,1-9.55,2,22.4,22.4,0,0,1-8.56-1.51,16.56,16.56,0,0,1-6.05-4.1,13.91,13.91,0,0,1-3.25-5.9Z"/><path class="cls-1" d="M384.77,766.69h5.91V799.3a16.34,16.34,0,0,0,1.84,8.27,11.27,11.27,0,0,0,5,4.65,16.6,16.6,0,0,0,7.12,1.47,16.13,16.13,0,0,0,7-1.47,11.31,11.31,0,0,0,4.95-4.65,16.34,16.34,0,0,0,1.84-8.27V766.69h5.91v32.54a22.1,22.1,0,0,1-1.59,8.78,16.41,16.41,0,0,1-4.39,6.09,18.8,18.8,0,0,1-6.35,3.58,23.3,23.3,0,0,1-7.45,1.18,22.91,22.91,0,0,1-9.81-2.1,16.84,16.84,0,0,1-7.24-6.46,20.5,20.5,0,0,1-2.73-11.07Z"/><path class="cls-1" d="M545.65,771.85h-2.44l-17,46.49h-6l18.89-51.65h10.63l18.82,51.65h-6ZM529.41,799.6h30.11v5.16H529.41Z"/><path class="cls-1" d="M671.32,766.69v46.49h24.13v5.16h-30V766.69Z"/><path class="cls-1" d="M796.7,805.21a10.8,10.8,0,0,0,1.88,3.95,11,11,0,0,0,4,3.24,14.46,14.46,0,0,0,6.53,1.29q5.68,0,8.41-2.65a8.47,8.47,0,0,0,2.73-6.28A7.11,7.11,0,0,0,818.7,800a11.86,11.86,0,0,0-4.21-3.06,43,43,0,0,0-6-2.18c-2-.54-3.92-1.14-5.87-1.81a24,24,0,0,1-5.27-2.51,11.29,11.29,0,0,1-3.77-3.94,12,12,0,0,1-1.4-6,13.19,13.19,0,0,1,7.9-12.55,20.42,20.42,0,0,1,8.78-1.77,21.16,21.16,0,0,1,7.6,1.25,14.87,14.87,0,0,1,5.42,3.51,14.07,14.07,0,0,1,3.22,5.2l-5.24,2a8.53,8.53,0,0,0-2-3.28,11.34,11.34,0,0,0-3.83-2.62,14.51,14.51,0,0,0-10.74,0,9,9,0,0,0-3.8,2.95,7.63,7.63,0,0,0-1.4,4.65,6.49,6.49,0,0,0,1.66,4.69,12,12,0,0,0,4.42,2.8q2.77,1.07,6.09,2c2,.64,4,1.33,5.87,2.07a23.06,23.06,0,0,1,5.09,2.73,12,12,0,0,1,3.58,4.06,12.25,12.25,0,0,1,1.33,6,14.83,14.83,0,0,1-1.85,7.27,13.49,13.49,0,0,1-5.57,5.39,19.88,19.88,0,0,1-9.55,2,22.46,22.46,0,0,1-8.57-1.51,16.65,16.65,0,0,1-6.05-4.1,14,14,0,0,1-3.24-5.9Z"/><path class="cls-1" d="M408,648.11l-11.35-.44c8.95-232.73,28.93-389,44.11-479.19q1.17-7,2.43-14.11c-34.06,41.31-81.52,84.76-135.73,132.94,17.3,32.28,21.54,68.87-8.67,110.7-32,44.29-89.28,98.33-153.26,144.57C98,577,38.44,612.56,14.23,609.24c-7.76-1.07-10.6-5.82-11.6-8.56-3.26-8.91-.81-28.31,57.9-93.74,70.36-78.39,147.34-146.55,215.26-206.7l17.46-15.47c-12.34-19.83-30-38.52-47.45-57-28.73-30.4-55.87-59.12-51.06-89.06,3.2-19.87,20.19-37.86,51.95-55,46-24.82,69.46-30.56,78.46-19.19,5.85,7.39,7.62,22.57-30.94,74.82-20.37,27.62-43,53.11-43.21,53.37l-8.49-7.55c.22-.25,22.53-25.41,42.6-52.62,37.87-51.33,31.43-60.6,31.14-61s-7.58-8.4-64.16,22.14c-28.45,15.35-43.54,30.66-46.13,46.8C202,164.94,227.3,191.68,254.06,220c16.45,17.41,34.42,36.43,47.6,57.32,60.7-54,112.63-101.86,146-146.93C459.6,68.11,475.15,6.83,487.42.8a7.33,7.33,0,0,1,7.56.54c2.71,1.93,7.74,5.52,2.7,45.89-3.63,29-17.61,57.89-39.33,87.71C439,237.14,417.39,404.92,408,648.11ZM299,294.86q-7.75,6.88-15.68,13.89C215.63,368.69,138.9,436.62,69,514.53c-58,64.63-56.57,79.85-55.7,82.24.1.26.34.92,2.5,1.22,13.65,1.88,58-17.54,123.13-64.62,63.05-45.56,119.39-98.65,150.7-142C316,354.91,313.77,323.59,299,294.86Zm189.47-277C482.75,30.54,474,59.32,464.2,105.63c12-20.3,19.75-40.12,22.21-59.81C488.14,31.94,488.55,23.25,488.47,17.88Z"/><path class="cls-1" d="M333.24,392.05l-4.18-10.56c1.28-.5,128.52-50.51,220.69-55.78l.64,11.34C460.07,342.21,334.5,391.55,333.24,392.05Z"/><path class="cls-1" d="M547.22,337.19c-15.73,21.34-31.4,43.05-45,65.77-3.34,6-7.36,12.23-8.82,18.77,0,.13.05.13-.11-.44-.07-.82-1.42-2.08-2.22-2.35a2.47,2.47,0,0,0-1.27-.23c4.72-1.61,9-5.17,13.12-8.14,1.51-1.15,3.56-2.75,5-3.94,19.15-17.38,33.78-39.81,45-63.14l10.53,4.21c-4.68,15.16-17.79,57.1-11.85,70.62.17.17,0,0,0,.05,3.54-.2,7.59-3.55,10.65-5.93A159.17,159.17,0,0,0,589.66,382c5.75-7.45,9.66-16.35,16.83-22.83A8.24,8.24,0,0,1,619.12,362c4.12,8.35,4.68,17.32,6.34,26.14,1.48,9.45,2.77,18.85,4.09,28.25l-10.68-1.8c6.7-12.72,13.7-25.1,21.21-37.33,7.21-10.86,24.83-42,38.72-41.77,14.31,1.25,10.1,24.89,10.43,34.54.16,13.06-3.08,38.13,7.47,46.74,15.08,9.45,49.45-12.11,63.78-20.26,24-14.6,47-31.14,69.72-48l4.17,5.5c-25.27,18.22-114.17,91.3-142.87,70.12-16.4-11.43-11.25-47-11.84-64.85-.07-4.86.23-10.1-1.81-13.92a1.11,1.11,0,0,0,.61.25,7.56,7.56,0,0,0-1.94,1c-11.48,9.41-19.21,23.67-27.21,36.28-10,16.69-19.62,35.34-28.44,52.77-2.19-14.49-4.4-31.43-6.63-45.73-1.34-7.38-2.07-15.4-4.92-22.17-.09-.19-.18-.18.2.14a3.82,3.82,0,0,0,2.81.74,2.12,2.12,0,0,0,.94-.31c-5.47,6-9.35,13.67-14.34,20.29-10.09,13.94-21.44,27.51-35.9,37.3-5.57,3.84-15.16,6.37-20.29-.32-9-12-1.06-40.1,1.87-53.66,2.36-9.36,5-18.51,8-27.75l10.52,4.22c-14.41,29.74-38.23,66.51-69.07,81-4,1.72-10.14.6-11.59-4.6-1-3.17-.13-5.81.56-8.32,2.31-6.95,5.89-13,9.4-19.16,4.63-7.85,9.54-15.41,14.54-22.9,10-14.94,20.44-29.49,31.17-43.93l9.09,6.81Z"/></g></g></svg>