<?xml version="1.0" encoding="utf-8"?>
<!-- Generator: Adobe Illustrator 27.0.0, SVG Export Plug-In . SVG Version: 6.00 Build 0)  -->
<svg version="1.1" id="Layer_1" xmlns="http://www.w3.org/2000/svg" xmlns:xlink="http://www.w3.org/1999/xlink" x="0px" y="0px"
	 viewBox="0 0 366.5 319.4" style="enable-background:new 0 0 366.5 319.4;" xml:space="preserve">
<style type="text/css">
	.st0{fill:#FFFFFF;}
</style>
<g>
	<path class="st0" d="M63.8,293.9c-6.5,0-11.2-2.2-14.1-6.6c-1.2-1.8-1.8-4.2-1.8-7c0-4.8,2.1-12,6.4-21.7c4.2-9.7,15-24.7,32.3-45
		c-7.2-3.7-15-7.3-23.3-10.6c-9.3-3.7-18-7.8-26.2-12.1s-14.5-9.7-19-16c-3.3-4.5-4.9-9.9-4.9-16c0-2.3,0.5-6.3,1.6-12.2
		s6.8-15.5,17.2-29c9.3-11.8,20.7-23.4,34.2-34.8S93.8,61.1,108.9,52s29.6-16.1,43.6-20.9c10.7-3.7,20.3-5.5,28.9-5.5
		c2.6,0,5.2,0.2,7.6,0.5c12.5,2.3,20.6,7.1,24.4,14.3c2.3,4.4,3.4,9.2,3.4,14.5c0,3.2-0.8,8.1-2.4,14.6s-5.1,14.2-10.4,23.1
		c-5.4,8.9-10.9,16.4-16.7,22.3c-5.8,6-10.1,8.9-12.9,8.9c-1.1,0-2.2-0.2-3.2-0.6c-1.1-0.4-1.9-0.8-2.6-1.3c-0.7-0.5-1-0.9-1-1.2
		c0-0.9,3.5-5.9,10.4-14.9c9.7-12.1,16.6-23.9,21-35.5c1.6-4.3,2.4-8.3,2.4-12.1c0-2.1-0.5-5-1.5-8.7c-1-3.7-5.5-6.6-13.4-8.6
		c-1.9-0.4-4-0.5-6.3-0.5c-8.9,0-21.1,3.2-36.6,9.6S111.2,66.2,93,79s-33.9,27-46.9,42.3C36.7,132,30.9,141,28.9,148.3
		c-0.7,2.6-1.1,5.2-1.1,7.6c0,4.1,1.4,8.2,4.2,12.2c2.8,4.1,7.7,7.9,14.5,11.5s14.5,7.1,22.8,10.4c7.8,3.1,15.3,6.5,22.7,10.2
		c0.8,0.4,1.5,0.8,2.1,1.2c0.6,0.4,1.1,0.6,1.4,0.8c0.3,0.1,0.6,0.2,0.9,0.2c0.5,0,1.1-0.1,1.8-0.3c0.7-0.2,1.6-0.4,2.8-0.7
		c1.7-0.4,3.2-0.7,4.5-0.7c1.5,0,2.8,0.3,3.7,0.8c0.9,0.5,1.4,1.2,1.4,2.1c0,1.1-0.6,2.5-1.8,4.2c-0.3,0.4-0.4,0.8-0.4,1.2
		s0.2,1,0.7,1.7c0.4,0.7,1.5,1.9,3.3,3.5c8.9,8.8,13.3,17.6,13.3,26.4c0,0.4-0.1,2.9-0.3,7.7c-0.2,4.8-3.6,11-10.2,18.7
		c-6.6,7.6-14.3,13.9-23.3,18.7C81.5,291.1,72.2,293.9,63.8,293.9z M69.2,280.6c1.9,0,4.9-0.7,9.1-2.2c4.1-1.5,9.2-4.7,15.2-9.8
		s10.5-11,13.4-17.6c1.4-3.1,2.1-6.2,2.1-9.3c0-5.2-2.1-10.7-6.2-16.5c-1.5-2.2-3-3.3-4.5-3.3c-0.9,0-1.9,0.6-3,1.6
		c-14.5,16.5-24,29.1-28.4,37.8c-3,5.8-4.5,10.2-4.5,13.3c0,1.6,0.4,2.9,1.2,3.7C64.9,279.8,66.7,280.6,69.2,280.6z"/>
	<path class="st0" d="M186.6,209.4c-5.3,0-9.1-2.6-11.4-7.8c-1.1-2.9-1.6-6.1-1.6-9.7c0-4.8,0.5-9.7,1.4-14.5c0.6-3.4,0.9-6.1,0.9-8
		c0-0.6,0-1.1-0.1-1.5c-0.4,0-2.4,0.9-6,2.8c-3.6,1.9-7.8,4.2-12.7,7.1c-6.3,3.7-11.2,6.3-14.8,7.9s-6.6,2.4-9.1,2.4
		c-2,0-3.9-0.5-5.8-1.4c-2.1-0.8-3.2-2.7-3.2-5.6c0-3.7,1.7-9.7,5.2-18c1.8-4.6,3.5-7.9,4.9-10s2.9-3.1,4.6-3.1
		c1.5,0,3.1,0.7,4.9,2.2c1.5,0.7,2.3,2,2.3,3.8c0,1.5-0.5,3.6-1.4,6.3c-1.4,3.5-2.1,6-2.1,7.4c0,1,0.4,1.5,1.1,1.5
		c0.9,0,2.2-0.4,3.7-1.3c1.5-0.8,3.4-1.9,5.4-3.2s4.4-2.7,6.9-4.1c11-6.3,18.7-9.4,23.2-9.4c2.5,0,4.5,0.8,6.1,2.3
		c1.1,0.9,1.9,1.8,2.4,2.7c0.5,0.9,0.8,2.2,0.8,3.9c0,2.5-0.5,6.4-1.4,11.6c-1.1,6-1.6,10.6-1.6,13.9c0,2.7,0.4,4.6,1.1,5.7
		c0.8,1.1,2,1.6,3.7,1.6c3.4,0,11.4-2.8,23.9-8.5c9.3-4.1,18.8-8.6,28.6-13.5c9.8-4.9,17.5-9.1,23.1-12.5c6.1-3.7,10.4-5.5,12.6-5.5
		c1.3,0,2.2,0.4,2.6,1.3s0.7,1.9,0.7,3.2c0,2.2-3.6,5.8-10.8,10.8c-7.2,5-16.2,10.2-27,15.8c-10.8,5.6-21.8,10.5-33.1,14.9
		c-6.7,2.7-12.2,4.8-16.8,6.2C193.4,208.7,189.6,209.4,186.6,209.4z"/>
	<path class="st0" d="M238.1,225.8c-2,0-3.6-0.4-4.8-1c-1.2-0.7-1.8-1.7-1.8-2.9c0-1.7,1.4-3.8,4.1-6.3l11.1-9.9
		c1.8-1.6,3.8-4.5,5.9-8.7s4-9,5.9-14.4c3.1-9.3,6.9-17.1,11.3-23.6c4.4-6.4,8.4-9.6,12-9.6c2.6,0,5.1,0.7,7.3,2.1s3.4,3.2,3.4,5.2
		c0,0.8-0.3,1.6-0.9,2.2c-0.6,0.7-1.5,1.5-2.6,2.4c-2.1,1.5-4.6,4-7.3,7.5c-2.8,3.4-5.2,8.6-7.4,15.5L271,195
		c2.8-1.5,7.7-4.3,14.7-8.5c7-4.2,14.7-8.7,23.2-13.6s16.5-9,24-12.6c7.5-3.6,13.1-5.4,16.8-5.4c2.3,0,3.6,1,3.7,3.1v1.2
		c0,2.9-0.8,5.1-2.4,6.5s-3.5,2.6-5.9,3.7c-1,0.4-1.9,0.9-3,1.5c-20.1,10-38.9,19.9-56.4,29.6c-17.5,9.7-28.4,16.1-32.4,19.2
		c-2.7,2.1-5.4,3.6-8.1,4.5C242.6,225.3,240.2,225.8,238.1,225.8z"/>
</g>
</svg>
